<?xml version="1.0" encoding="utf-8"?>
<svg xmlns="http://www.w3.org/2000/svg" width="91.1px" height="48px" data-id="lg_BFNSTjwX50TqoSFZLU" data-version="1" viewBox="0 0 91.1 48">
  <g data-padding="20" transform="matrix(0.162712, 0, 0, 0.162712, -117.152637, 0)">
    <g transform="translate(10 5.268)scale(.96429)">
      <rect width="560" height="190.97" x="346.167" y="-384.697" fill="none" rx="0" ry="0" transform="translate(400.5 488.81)"/>
      <path fill="#ffffff" d="m748.997 252.688 19.27-118.3h25.18l19.27 118.3h-18.59l-3.38-23.49v.34h-21.13l-3.38 23.15Zm22.82-39.2h16.73l-8.28-58.48h-.34Zm49.85 39.2v-118.3h18.59v101.4h30.59v16.9Zm54.42 0v-16.56l34.48-84.84h-32.79v-16.9h52.73v16.57l-34.48 84.83h34.48v16.9Zm60.01 0 19.26-118.3h25.18l19.27 118.3h-18.59l-3.38-23.49v.34h-21.13l-3.38 23.15Zm22.81-39.2h16.73l-8.28-58.48h-.34Zm75.87 40.89q-13.52 0-20.62-7.68-7.09-7.69-7.09-22.06v-62.19q0-14.37 7.09-22.06 7.1-7.69 20.62-7.69t20.62 7.69 7.1 22.06v10.14h-17.58v-11.32q0-11.67-9.63-11.67t-9.63 11.67v64.72q0 11.49 9.63 11.49t9.63-11.49v-23.15h-9.29v-16.9h26.87v38.7q0 14.37-7.1 22.06-7.1 7.68-20.62 7.68m39.72-1.69v-118.3h18.59v48.17h19.94v-48.17h18.59v118.3h-18.59v-53.23h-19.94v53.23Zm66.08 0 19.26-118.3h25.18l19.27 118.3h-18.59l-3.38-23.49v.34h-21.13l-3.38 23.15Zm22.81-39.2h16.73l-8.28-58.48h-.34Zm49.86 39.2v-118.3h27.54q14.37 0 20.96 6.68t6.59 20.53v7.27q0 18.42-12.17 23.32v.34q6.76 2.03 9.55 8.28t2.79 16.73v20.79q0 5.07.34 8.2.33 3.12 1.69 6.16h-18.93q-1.02-2.87-1.35-5.4-.34-2.54-.34-9.13v-21.63q0-8.11-2.62-11.32-2.62-3.22-9.04-3.22h-6.42v50.7Zm18.59-67.6h6.76q5.57 0 8.36-2.87t2.79-9.63v-9.13q0-6.42-2.28-9.29-2.28-2.88-7.18-2.88h-8.45Zm49.51 67.6v-118.3h18.59v118.3Zm-280.86-214.13a8.05 8.05 0 1 0 0 16.1 8.05 8.05 0 1 0 0-16.1"/>
      <path fill="#ffffff" d="M1048.787-.082h-48.3c-25.786 0-46.69 20.904-46.69 46.69s20.904 46.69 46.69 46.69h48.3c25.786 0 46.69-20.904 46.69-46.69s-20.904-46.69-46.69-46.69m0 86.94h-48.3c-22.23 0-40.25-18.02-40.25-40.25s18.02-40.25 40.25-40.25h48.3c22.23 0 40.25 18.02 40.25 40.25s-18.02 40.25-40.25 40.25"/>
      <path fill="#ffffff" d="M1004.319 12.798h-.998c-18.445.035-33.39 14.98-33.424 33.423v.772c.035 18.445 14.98 33.39 33.424 33.424h.998a26.726 26.726 0 0 0 26.758-26.758V39.555a26.726 26.726 0 0 0-26.758-26.757m20.318 40.862a20.286 20.286 0 0 1-20.318 20.318h-.998a27.05 27.05 0 0 1-26.984-26.984v-.772a27.05 27.05 0 0 1 26.984-26.984h.998a20.286 20.286 0 0 1 20.318 20.318Zm12.88-34.422h28.98v6.44h-28.98Zm0 16.1h38.64v6.44h-38.64Zm0 16.1h38.64v6.44h-38.64Zm0 16.1h28.98v6.44h-28.98Z"/>
    </g>
    <path fill="transparent" stroke="transparent" d="M720 0h560v295H720z"/>
  </g>
</svg>